<svg width="120" height="100" viewBox="0 0 120 100" fill="none" xmlns="http://www.w3.org/2000/svg">
<path d="M0 37.5C0 16.7893 16.7893 0 37.5 0H120V62.5C120 83.2107 103.211 100 82.5 100H0V37.5Z" fill="#0D6EFD"/>
<path d="M59.9768 24.9969C54.4543 24.9969 49.9768 29.4744 49.9768 34.9969C46.2668 34.9969 40.2893 34.9969 39.9768 34.9969C38.5968 34.9969 37.4768 36.1169 37.4768 37.4969V64.997C37.4768 70.5195 41.9543 74.997 47.4768 74.997H72.4768C77.9993 74.997 82.4768 70.5195 82.4768 64.997V37.4969C82.4768 36.1169 81.3568 34.9969 79.9768 34.9969C79.6643 34.9969 73.6868 34.9969 69.9768 34.9969C69.9768 29.4744 65.4993 24.9969 59.9768 24.9969ZM59.9768 29.9969C62.7393 29.9969 64.9768 32.2344 64.9768 34.9969C60.4168 34.9969 59.5368 34.9969 54.9768 34.9969C54.9768 32.2344 57.2143 29.9969 59.9768 29.9969ZM69.9768 47.497C70.6168 47.497 71.2843 47.712 71.7743 48.1995C72.7493 49.177 72.7493 50.817 71.7743 51.7945L61.7743 61.7945C60.7968 62.7695 59.1568 62.7695 58.1793 61.7945L53.1793 56.7945C52.2043 55.817 52.2043 54.177 53.1793 53.1995C54.1568 52.2245 55.7968 52.2245 56.7743 53.1995L59.9768 56.402L68.1793 48.1995C68.6693 47.712 69.3368 47.497 69.9768 47.497Z" fill="white"/>
</svg>
